# xmcd CD database file
#
# Track frame offsets:
#	225
#	13525
#	26078
#	37729
#	49636
#	63221
#	73463
#	88621
#	102435
#	113235
#	124317
#	135156
#	149356
#	161014
#	171754
#	189063
#	204230
#	214745
#
# Disc length: 3065 seconds
#
# Revision: 3
# Processed by: cddbd v1.4PL0 Copyright (c) Steve Scherf et al.
# Submitted via: CDex 1.50Beta7
#
DISCID=f50bf612
DTITLE=Kenny Rogers - Ruby Don´t Take Your Love To Town
DYEAR=1900
DGENRE=Country
TTITLE0=Ruby, Don´t Take Your Love To Town
TTITLE1=Reuben James
TTITLE2=Me And Bobby McGee
TTITLE3=Elvira
TTITLE4=Shine On Ruby Mountain
TTITLE5=Where Does Rosie Go
TTITLE6=Tell It All Brother
TTITLE7=I´m Gonna Sing You A Sad Song Suzie
TTITLE8=We All Got To Help Each Other
TTITLE9=Always Leaving Always Gone
TTITLE10=She Even Woke Me Up To Say Goodbye
TTITLE11=Sunshine
TTITLE12=Poem From A Little Lady
TTITLE13=Ticket To Nowhere
TTITLE14=Something´s Burning
TTITLE15=Conditions (Just Dropped In)
TTITLE16=Goodtime Liberator
TTITLE17=For The Good Times
EXTD=
EXTT0=
EXTT1=
EXTT2=
EXTT3=
EXTT4=
EXTT5=
EXTT6=
EXTT7=
EXTT8=
EXTT9=
EXTT10=
EXTT11=
EXTT12=
EXTT13=
EXTT14=
EXTT15=
EXTT16=
EXTT17=
PLAYORDER=
